<?xml version="1.0" encoding="utf-8"?>
<!-- Generator: Adobe Illustrator 19.0.0, SVG Export Plug-In . SVG Version: 6.00 Build 0)  -->
<svg version="1.1" id="Camada_1" xmlns="http://www.w3.org/2000/svg" xmlns:xlink="http://www.w3.org/1999/xlink" x="0px" y="0px"
	 viewBox="0 0 1564.4 150.3" style="enable-background:new 0 0 1564.4 150.3;" xml:space="preserve">
<style type="text/css">
	.st0{fill:#FFFFFF;}
</style>
<g id="XMLID_1_">
	<path id="XMLID_90_" class="st0" d="M12.2,34.1H44c14.9,0,31.2,3.1,31.2,21.7c0,9.5-5.9,16-14.7,18.8v0.2
		c11.2,1.4,18.7,9.8,18.7,20.9c0,17.8-16.9,23.7-32.1,23.7h-35V34.1z M31,68.2h13.6c5.8,0,11.8-2.4,11.8-9.3c0-7.1-6.7-8.9-12.7-8.9
		H31V68.2z M31,103.5h16.9c5.9,0,12.5-2.5,12.5-10c0-8.1-9-9.4-15.2-9.4H31V103.5z"/>
	<path id="XMLID_94_" class="st0" d="M139.3,34.1h58v17.4h-39.2v15.9h37v17.4h-37v17.4h41.3v17.4h-60.1V34.1z"/>
	<path id="XMLID_96_" class="st0" d="M263.4,34.1h58v17.4h-39.2v15.9h37v17.4h-37v17.4h41.3v17.4h-60.1V34.1z"/>
	<path id="XMLID_98_" class="st0" d="M386.8,34.1h33c17.5,0,32.2,6,32.2,25.9c0,11.9-6.4,21.2-18.4,23.4l21.7,36h-22.5l-17.8-34.1
		h-9.3v34.1h-18.8V34.1z M405.6,69.4h11.1c6.9,0,15.8-0.2,15.8-9.5c0-8.6-7.7-9.9-14.6-9.9h-12.3V69.4z"/>
</g>
<g id="XMLID_2_">
	<path id="XMLID_81_" class="st0" d="M561.5,34.1h18.8v31.8h36.5V34.1h18.8v85.3h-18.8V82.6h-36.5v36.9h-18.8V34.1z"/>
	<path id="XMLID_83_" class="st0" d="M717.2,34.1h15.5l37.1,85.3h-21.2l-7.4-18.1h-33.1l-7.1,18.1h-20.7L717.2,34.1z M724.5,58.9
		l-10.4,26.5H735L724.5,58.9z"/>
	<path id="XMLID_86_" class="st0" d="M870.4,56.3c-3.7-4.5-9.2-7-16.2-7c-14.2,0-24.7,11.6-24.7,27.5c0,15.9,10.5,27.5,24.1,27.5
		c7.6,0,13.7-3.4,17.6-9.2l15.7,11.7c-7.1,10.1-19.2,14.8-30.9,14.8c-26.6,0-46-17.5-46-44.8c0-27.4,19.4-44.8,46-44.8
		c9.5,0,21.6,3.3,28.8,12.5L870.4,56.3z"/>
	<path id="XMLID_88_" class="st0" d="M934.1,34.1h18.8v35.4L986,34.1h24.6l-38,39.7l41.2,45.7h-26.3l-34.7-40.5v40.5h-18.8V34.1z"/>
</g>
<g id="XMLID_3_">
	<path id="XMLID_70_" class="st0" d="M1159.9,34.1h15.5l37.1,85.3h-21.2l-7.4-18.1h-33.1l-7.1,18.1H1123L1159.9,34.1z M1167.2,58.9
		l-10.4,26.5h20.9L1167.2,58.9z"/>
	<path id="XMLID_73_" class="st0" d="M1267,34.1h31.7c17.7,0,32.4,5.7,32.4,25.9c0,20-13.6,26.2-31.6,26.2h-13.7v33.3H1267V34.1z
		 M1285.8,70.3h12.5c6.6,0,13.3-2.3,13.3-10.2c0-8.8-8.9-10-16.2-10h-9.6V70.3z"/>
	<path id="XMLID_76_" class="st0" d="M1388.7,34.1h31.7c17.7,0,32.4,5.7,32.4,25.9c0,20-13.6,26.2-31.6,26.2h-13.7v33.3h-18.8V34.1z
		 M1407.5,70.3h12.5c6.6,0,13.3-2.3,13.3-10.2c0-8.8-8.9-10-16.2-10h-9.6V70.3z"/>
	<path id="XMLID_79_" class="st0" d="M1501.8,134.5v-6h60.3v6H1501.8z"/>
</g>
<g id="XMLID_69_">
</g>
<g id="XMLID_101_">
</g>
<g id="XMLID_102_">
</g>
<g id="XMLID_103_">
</g>
<g id="XMLID_104_">
</g>
<g id="XMLID_105_">
</g>
</svg>
