<?xml version="1.0" encoding="utf-8"?>
<!-- Generator: Adobe Illustrator 19.0.0, SVG Export Plug-In . SVG Version: 6.00 Build 0)  -->
<svg version="1.1" id="Camada_1" xmlns="http://www.w3.org/2000/svg" xmlns:xlink="http://www.w3.org/1999/xlink" x="0px" y="0px"
	 viewBox="0 0 512 400" style="enable-background:new 0 0 512 400;" xml:space="preserve">
<style type="text/css">
	.st0{fill:#FFFFFF;}
</style>
<g id="XMLID_1_">
	<path id="XMLID_51_" class="st0" d="M30.8,44.1h31.8c14.9,0,31.2,3.1,31.2,21.7c0,9.5-5.9,16-14.7,18.8v0.2
		c11.2,1.4,18.7,9.8,18.7,20.9c0,17.8-16.9,23.7-32.1,23.7h-35V44.1z M49.6,78.2h13.6c5.8,0,11.8-2.4,11.8-9.3
		c0-7.1-6.7-8.9-12.7-8.9H49.6V78.2z M49.6,113.5h16.9c5.9,0,12.5-2.5,12.5-10c0-8.1-9-9.4-15.2-9.4H49.6V113.5z"/>
	<path id="XMLID_55_" class="st0" d="M157.9,44.1h58v17.4h-39.2v15.9h37v17.4h-37v17.4H218v17.4h-60.1V44.1z"/>
	<path id="XMLID_57_" class="st0" d="M282,44.1h58v17.4h-39.2v15.9h37v17.4h-37v17.4h41.3v17.4H282V44.1z"/>
	<path id="XMLID_59_" class="st0" d="M405.4,44.1h33c17.5,0,32.2,6,32.2,25.9c0,11.9-6.4,21.2-18.4,23.4l21.7,36h-22.5l-17.8-34.1
		h-9.3v34.1h-18.8V44.1z M424.2,79.4h11.1c6.9,0,15.8-0.2,15.8-9.5c0-8.6-7.7-9.9-14.6-9.9h-12.3V79.4z"/>
</g>
<g id="XMLID_2_">
	<path id="XMLID_42_" class="st0" d="M29.1,157.4H48v31.8h36.5v-31.8h18.8v85.3H84.5v-36.9H48v36.9H29.1V157.4z"/>
	<path id="XMLID_44_" class="st0" d="M184.9,157.4h15.5l37.1,85.3h-21.2l-7.4-18.1h-33.1l-7.1,18.1H148L184.9,157.4z M192.1,182.2
		l-10.4,26.5h20.9L192.1,182.2z"/>
	<path id="XMLID_47_" class="st0" d="M338.1,179.5c-3.7-4.5-9.2-7-16.2-7c-14.2,0-24.7,11.6-24.7,27.5c0,15.9,10.5,27.5,24.1,27.5
		c7.6,0,13.7-3.4,17.6-9.2l15.7,11.7c-7.1,10.1-19.2,14.8-30.9,14.8c-26.6,0-46-17.5-46-44.8c0-27.4,19.4-44.8,46-44.8
		c9.5,0,21.6,3.3,28.8,12.5L338.1,179.5z"/>
	<path id="XMLID_49_" class="st0" d="M401.7,157.4h18.8v35.4l33.1-35.4h24.6l-38,39.7l41.2,45.7h-26.3l-34.7-40.5v40.5h-18.8V157.4z
		"/>
</g>
<g id="XMLID_3_">
	<path id="XMLID_31_" class="st0" d="M60.6,272.1h15.5l37.1,85.3H92l-7.4-18.1H51.5l-7.1,18.1H23.7L60.6,272.1z M67.8,297
		l-10.4,26.5h20.9L67.8,297z"/>
	<path id="XMLID_34_" class="st0" d="M167.6,272.1h31.7c17.7,0,32.4,5.7,32.4,25.9c0,20-13.6,26.2-31.6,26.2h-13.7v33.3h-18.8V272.1
		z M186.4,308.3H199c6.6,0,13.3-2.3,13.3-10.2c0-8.8-8.9-10-16.2-10h-9.6V308.3z"/>
	<path id="XMLID_37_" class="st0" d="M289.4,272.1h31.7c17.7,0,32.4,5.7,32.4,25.9c0,20-13.6,26.2-31.6,26.2h-13.7v33.3h-18.8V272.1
		z M308.2,308.3h12.5c6.6,0,13.3-2.3,13.3-10.2c0-8.8-8.9-10-16.2-10h-9.6V308.3z"/>
	<path id="XMLID_40_" class="st0" d="M402.4,372.5v-6h60.3v6H402.4z"/>
</g>
<g id="XMLID_30_">
</g>
<g id="XMLID_62_">
</g>
<g id="XMLID_63_">
</g>
<g id="XMLID_64_">
</g>
<g id="XMLID_65_">
</g>
<g id="XMLID_66_">
</g>
</svg>
